STARTFONT 2.1
FONT --Ruby-Regular-R-Normal--12-120-72-72-P-101-ISO8859-1
SIZE 12 72 72
FONTBOUNDINGBOX 14 12 0 -3
METRICSSET 2
STARTPROPERTIES 17
PIXEL_SIZE 12
RESOLUTION_X 72
RESOLUTION_Y 72
POINT_SIZE 120
FACE_NAME "Ruby Regular 12"
FOUNDRY ""
FAMILY_NAME "Ruby"
WEIGHT_NAME "Regular"
RELATIVE_WEIGHT 50
SLANT "R"
SPACING "P"
SETWIDTH_NAME "Normal"
RELATIVE_SETWIDTH 50
ADD_STYLE_NAME ""
AVERAGE_WIDTH 101
CHARSET_REGISTRY "ISO8859"
CHARSET_ENCODING "1"
ENDPROPERTIES
CHARS 225
STARTCHAR space
ENCODING 32
SWIDTH 750 0
DWIDTH 9 0
BBX 0 0 9 -3
VVECTOR 9 -3
SWIDTH1 0 0
DWIDTH1 0 0
BITMAP 
ENDCHAR
STARTCHAR exclam
ENCODING 33
SWIDTH 417 0
DWIDTH 5 0
BBX 4 9 0 0
VVECTOR 2 9
SWIDTH1 0 -1000
DWIDTH1 0 -12
BITMAP 
60
F0
F0
60
60
60
00
60
60
ENDCHAR
STARTCHAR quotedbl
ENCODING 34
SWIDTH 583 0
DWIDTH 7 0
BBX 6 3 0 6
VVECTOR 3 9
SWIDTH1 0 -1000
DWIDTH1 0 -12
BITMAP 
CC
CC
CC
ENDCHAR
STARTCHAR numbersign
ENCODING 35
SWIDTH 833 0
DWIDTH 10 0
BBX 9 8 0 1
VVECTOR 5 9
SWIDTH1 0 -1000
DWIDTH1 0 -12
BITMAP 
6300
6300
FF80
6300
6300
FF80
6300
6300
ENDCHAR
STARTCHAR dollar
ENCODING 36
SWIDTH 750 0
DWIDTH 9 0
BBX 8 9 0 0
VVECTOR 4 9
SWIDTH1 0 -1000
DWIDTH1 0 -12
BITMAP 
18
18
7F
C0
7E
03
FE
18
18
ENDCHAR
STARTCHAR percent
ENCODING 37
SWIDTH 833 0
DWIDTH 10 0
BBX 9 8 0 1
VVECTOR 5 9
SWIDTH1 0 -1000
DWIDTH1 0 -12
BITMAP 
0100
E300
E600
0C00
1800
3380
6380
4000
ENDCHAR
STARTCHAR ampersand
ENCODING 38
SWIDTH 833 0
DWIDTH 10 0
BBX 9 7 0 0
VVECTOR 5 9
SWIDTH1 0 -1000
DWIDTH1 0 -12
BITMAP 
3C00
6600
6400
3B00
CE00
C600
7B80
ENDCHAR
STARTCHAR quotesingle
ENCODING 39
SWIDTH 500 0
DWIDTH 6 0
BBX 3 3 1 6
VVECTOR 3 9
SWIDTH1 0 -1000
DWIDTH1 0 -12
BITMAP 
60
60
C0
ENDCHAR
STARTCHAR parenleft
ENCODING 40
SWIDTH 833 0
DWIDTH 10 0
BBX 7 9 1 0
VVECTOR 5 9
SWIDTH1 0 -1000
DWIDTH1 0 -12
BITMAP 
0E
10
60
C0
C0
C0
60
10
0E
ENDCHAR
STARTCHAR parenright
ENCODING 41
SWIDTH 833 0
DWIDTH 10 0
BBX 7 9 1 0
VVECTOR 5 9
SWIDTH1 0 -1000
DWIDTH1 0 -12
BITMAP 
E0
10
0C
06
06
06
0C
10
E0
ENDCHAR
STARTCHAR asterisk
ENCODING 42
SWIDTH 917 0
DWIDTH 11 0
BBX 10 5 0 2
VVECTOR 5 9
SWIDTH1 0 -1000
DWIDTH1 0 -12
BITMAP 
2300
1600
FFC0
1A00
3100
ENDCHAR
STARTCHAR plus
ENCODING 43
SWIDTH 750 0
DWIDTH 9 0
BBX 8 5 0 2
VVECTOR 4 9
SWIDTH1 0 -1000
DWIDTH1 0 -12
BITMAP 
18
18
FF
18
18
ENDCHAR
STARTCHAR comma
ENCODING 44
SWIDTH 500 0
DWIDTH 6 0
BBX 3 3 1 -1
VVECTOR 3 9
SWIDTH1 0 -1000
DWIDTH1 0 -12
BITMAP 
60
60
C0
ENDCHAR
STARTCHAR hyphen
ENCODING 45
SWIDTH 750 0
DWIDTH 9 0
BBX 8 1 0 4
VVECTOR 4 9
SWIDTH1 0 -1000
DWIDTH1 0 -12
BITMAP 
FF
ENDCHAR
STARTCHAR period
ENCODING 46
SWIDTH 417 0
DWIDTH 5 0
BBX 2 2 1 0
VVECTOR 2 9
SWIDTH1 0 -1000
DWIDTH1 0 -12
BITMAP 
C0
C0
ENDCHAR
STARTCHAR slash
ENCODING 47
SWIDTH 1083 0
DWIDTH 13 0
BBX 10 11 1 -2
VVECTOR 6 9
SWIDTH1 0 -1000
DWIDTH1 0 -12
BITMAP 
0040
00C0
0180
0300
0600
0C00
1800
3000
6000
C000
8000
ENDCHAR
STARTCHAR zero
ENCODING 48
SWIDTH 917 0
DWIDTH 11 0
BBX 9 9 1 0
VVECTOR 6 9
SWIDTH1 0 -1000
DWIDTH1 0 -12
BITMAP 
7F00
C180
C380
C580
C980
D180
E180
C180
7F00
ENDCHAR
STARTCHAR one
ENCODING 49
SWIDTH 667 0
DWIDTH 8 0
BBX 6 9 1 0
VVECTOR 4 9
SWIDTH1 0 -1000
DWIDTH1 0 -12
BITMAP 
30
70
F0
30
30
30
30
30
FC
ENDCHAR
STARTCHAR two
ENCODING 50
SWIDTH 750 0
DWIDTH 9 0
BBX 8 9 0 0
VVECTOR 4 9
SWIDTH1 0 -1000
DWIDTH1 0 -12
BITMAP 
7C
86
03
06
0C
18
31
63
FF
ENDCHAR
STARTCHAR three
ENCODING 51
SWIDTH 750 0
DWIDTH 9 0
BBX 8 9 0 0
VVECTOR 4 9
SWIDTH1 0 -1000
DWIDTH1 0 -12
BITMAP 
7E
83
03
03
0E
03
03
83
7C
ENDCHAR
STARTCHAR four
ENCODING 52
SWIDTH 833 0
DWIDTH 10 0
BBX 9 9 0 0
VVECTOR 5 9
SWIDTH1 0 -1000
DWIDTH1 0 -12
BITMAP 
0700
0F00
1B00
3300
6300
C300
FF80
0300
0780
ENDCHAR
STARTCHAR five
ENCODING 53
SWIDTH 750 0
DWIDTH 9 0
BBX 8 9 0 0
VVECTOR 4 9
SWIDTH1 0 -1000
DWIDTH1 0 -12
BITMAP 
FE
C0
C0
C0
FC
03
03
83
7E
ENDCHAR
STARTCHAR six
ENCODING 54
SWIDTH 833 0
DWIDTH 10 0
BBX 9 9 0 0
VVECTOR 5 9
SWIDTH1 0 -1000
DWIDTH1 0 -12
BITMAP 
3C00
4000
C000
C000
DF00
E180
C180
6300
3E00
ENDCHAR
STARTCHAR seven
ENCODING 55
SWIDTH 917 0
DWIDTH 11 0
BBX 10 9 0 0
VVECTOR 5 9
SWIDTH1 0 -1000
DWIDTH1 0 -12
BITMAP 
FFC0
C180
8300
0600
0C00
0C00
0C00
0C00
0C00
ENDCHAR
STARTCHAR eight
ENCODING 56
SWIDTH 833 0
DWIDTH 10 0
BBX 9 9 0 0
VVECTOR 5 9
SWIDTH1 0 -1000
DWIDTH1 0 -12
BITMAP 
7F00
C180
4100
3E00
4100
C180
C180
4100
3E00
ENDCHAR
STARTCHAR nine
ENCODING 57
SWIDTH 833 0
DWIDTH 10 0
BBX 9 9 0 0
VVECTOR 5 9
SWIDTH1 0 -1000
DWIDTH1 0 -12
BITMAP 
3E00
6300
C180
C380
7D80
0180
0180
0100
0E00
ENDCHAR
STARTCHAR colon
ENCODING 58
SWIDTH 500 0
DWIDTH 6 0
BBX 2 6 1 0
VVECTOR 2 9
SWIDTH1 0 -1000
DWIDTH1 0 -12
BITMAP 
C0
C0
00
00
C0
C0
ENDCHAR
STARTCHAR semicolon
ENCODING 59
SWIDTH 583 0
DWIDTH 7 0
BBX 3 7 1 -1
VVECTOR 3 9
SWIDTH1 0 -1000
DWIDTH1 0 -12
BITMAP 
60
60
00
00
60
60
80
ENDCHAR
STARTCHAR less
ENCODING 60
SWIDTH 750 0
DWIDTH 9 0
BBX 6 9 1 0
VVECTOR 4 9
SWIDTH1 0 -1000
DWIDTH1 0 -12
BITMAP 
0C
18
30
60
C0
60
30
18
0C
ENDCHAR
STARTCHAR equal
ENCODING 61
SWIDTH 667 0
DWIDTH 8 0
BBX 7 4 0 2
VVECTOR 4 9
SWIDTH1 0 -1000
DWIDTH1 0 -12
BITMAP 
FE
00
00
FE
ENDCHAR
STARTCHAR greater
ENCODING 62
SWIDTH 750 0
DWIDTH 9 0
BBX 6 9 1 0
VVECTOR 4 9
SWIDTH1 0 -1000
DWIDTH1 0 -12
BITMAP 
C0
60
30
18
0C
18
30
60
C0
ENDCHAR
STARTCHAR question
ENCODING 63
SWIDTH 833 0
DWIDTH 10 0
BBX 7 9 1 0
VVECTOR 5 9
SWIDTH1 0 -1000
DWIDTH1 0 -12
BITMAP 
7C
C6
06
0C
18
18
00
18
18
ENDCHAR
STARTCHAR at
ENCODING 64
SWIDTH 1250 0
DWIDTH 15 0
BBX 14 11 0 -2
VVECTOR 7 9
SWIDTH1 0 -1000
DWIDTH1 0 -12
BITMAP 
1FE0
2010
4788
C8CC
C3CC
C4CC
CCCC
C7F8
4000
2010
1FE0
ENDCHAR
STARTCHAR A
ENCODING 65
SWIDTH 1000 0
DWIDTH 12 0
BBX 11 9 0 0
VVECTOR 6 9
SWIDTH1 0 -1000
DWIDTH1 0 -12
BITMAP 
0400
0E00
1300
1300
2180
3F80
40C0
40C0
E1E0
ENDCHAR
STARTCHAR B
ENCODING 66
SWIDTH 917 0
DWIDTH 11 0
BBX 10 9 0 0
VVECTOR 5 9
SWIDTH1 0 -1000
DWIDTH1 0 -12
BITMAP 
FF80
60C0
60C0
60C0
7F80
60C0
60C0
60C0
FF80
ENDCHAR
STARTCHAR C
ENCODING 67
SWIDTH 1000 0
DWIDTH 12 0
BBX 11 9 0 0
VVECTOR 6 9
SWIDTH1 0 -1000
DWIDTH1 0 -12
BITMAP 
3FA0
6060
C020
C000
C000
C000
C020
6040
3F80
ENDCHAR
STARTCHAR D
ENCODING 68
SWIDTH 917 0
DWIDTH 11 0
BBX 10 9 0 0
VVECTOR 5 9
SWIDTH1 0 -1000
DWIDTH1 0 -12
BITMAP 
FF00
6180
60C0
60C0
60C0
60C0
60C0
6180
FF00
ENDCHAR
STARTCHAR E
ENCODING 69
SWIDTH 833 0
DWIDTH 10 0
BBX 9 9 0 0
VVECTOR 5 9
SWIDTH1 0 -1000
DWIDTH1 0 -12
BITMAP 
FF80
6080
6000
6200
7E00
6200
6000
6080
FF80
ENDCHAR
STARTCHAR F
ENCODING 70
SWIDTH 833 0
DWIDTH 10 0
BBX 9 9 0 0
VVECTOR 5 9
SWIDTH1 0 -1000
DWIDTH1 0 -12
BITMAP 
FF80
6080
6000
6200
7E00
6200
6000
6000
F000
ENDCHAR
STARTCHAR G
ENCODING 71
SWIDTH 1083 0
DWIDTH 13 0
BBX 12 9 0 0
VVECTOR 6 9
SWIDTH1 0 -1000
DWIDTH1 0 -12
BITMAP 
3FA0
6060
C020
C000
C000
C0F0
C060
6060
3FC0
ENDCHAR
STARTCHAR H
ENCODING 72
SWIDTH 1000 0
DWIDTH 12 0
BBX 11 9 0 0
VVECTOR 6 9
SWIDTH1 0 -1000
DWIDTH1 0 -12
BITMAP 
F1E0
60C0
60C0
60C0
7FC0
60C0
60C0
60C0
F1E0
ENDCHAR
STARTCHAR I
ENCODING 73
SWIDTH 583 0
DWIDTH 7 0
BBX 4 9 1 0
VVECTOR 3 9
SWIDTH1 0 -1000
DWIDTH1 0 -12
BITMAP 
F0
60
60
60
60
60
60
60
F0
ENDCHAR
STARTCHAR J
ENCODING 74
SWIDTH 917 0
DWIDTH 11 0
BBX 9 9 1 0
VVECTOR 6 9
SWIDTH1 0 -1000
DWIDTH1 0 -12
BITMAP 
0780
0300
0300
0300
0300
0300
0300
8300
7E00
ENDCHAR
STARTCHAR K
ENCODING 75
SWIDTH 917 0
DWIDTH 11 0
BBX 10 9 0 0
VVECTOR 5 9
SWIDTH1 0 -1000
DWIDTH1 0 -12
BITMAP 
F1C0
6100
6200
6400
7800
6C00
6600
6300
F3C0
ENDCHAR
STARTCHAR L
ENCODING 76
SWIDTH 833 0
DWIDTH 10 0
BBX 9 9 0 0
VVECTOR 5 9
SWIDTH1 0 -1000
DWIDTH1 0 -12
BITMAP 
F000
6000
6000
6000
6000
6000
6080
6180
FF80
ENDCHAR
STARTCHAR M
ENCODING 77
SWIDTH 1167 0
DWIDTH 14 0
BBX 13 9 0 0
VVECTOR 7 9
SWIDTH1 0 -1000
DWIDTH1 0 -12
BITMAP 
E038
7070
7070
58B0
58B0
4D30
4D30
4630
E678
ENDCHAR
STARTCHAR N
ENCODING 78
SWIDTH 1000 0
DWIDTH 12 0
BBX 11 9 0 0
VVECTOR 6 9
SWIDTH1 0 -1000
DWIDTH1 0 -12
BITMAP 
C0E0
6040
7040
7840
5C40
4E40
4740
43C0
E1C0
ENDCHAR
STARTCHAR O
ENCODING 79
SWIDTH 1000 0
DWIDTH 12 0
BBX 11 9 0 0
VVECTOR 6 9
SWIDTH1 0 -1000
DWIDTH1 0 -12
BITMAP 
3F80
60C0
C060
C060
C060
C060
C060
60C0
3F80
ENDCHAR
STARTCHAR P
ENCODING 80
SWIDTH 917 0
DWIDTH 11 0
BBX 10 9 0 0
VVECTOR 5 9
SWIDTH1 0 -1000
DWIDTH1 0 -12
BITMAP 
FF80
60C0
60C0
60C0
7F80
6000
6000
6000
F000
ENDCHAR
STARTCHAR Q
ENCODING 81
SWIDTH 1000 0
DWIDTH 12 0
BBX 11 12 0 -3
VVECTOR 6 9
SWIDTH1 0 -1000
DWIDTH1 0 -12
BITMAP 
3F80
60C0
C060
C060
C060
C060
C060
60C0
3F80
0C00
0600
0180
ENDCHAR
STARTCHAR R
ENCODING 82
SWIDTH 917 0
DWIDTH 11 0
BBX 10 9 0 0
VVECTOR 5 9
SWIDTH1 0 -1000
DWIDTH1 0 -12
BITMAP 
FF80
60C0
60C0
60C0
7F80
6C00
6600
6300
F3C0
ENDCHAR
STARTCHAR S
ENCODING 83
SWIDTH 917 0
DWIDTH 11 0
BBX 10 9 0 0
VVECTOR 5 9
SWIDTH1 0 -1000
DWIDTH1 0 -12
BITMAP 
1F40
70C0
E040
3800
0E00
0380
81C0
C380
BE00
ENDCHAR
STARTCHAR T
ENCODING 84
SWIDTH 1083 0
DWIDTH 13 0
BBX 12 9 0 0
VVECTOR 6 9
SWIDTH1 0 -1000
DWIDTH1 0 -12
BITMAP 
FFF0
C630
8610
0600
0600
0600
0600
0600
0F00
ENDCHAR
STARTCHAR U
ENCODING 85
SWIDTH 1000 0
DWIDTH 12 0
BBX 11 9 0 0
VVECTOR 6 9
SWIDTH1 0 -1000
DWIDTH1 0 -12
BITMAP 
F1E0
6040
6040
6040
6040
6040
6040
3080
1F00
ENDCHAR
STARTCHAR V
ENCODING 86
SWIDTH 917 0
DWIDTH 11 0
BBX 10 9 0 0
VVECTOR 5 9
SWIDTH1 0 -1000
DWIDTH1 0 -12
BITMAP 
F1C0
6080
6080
3100
3100
1A00
1A00
0C00
0C00
ENDCHAR
STARTCHAR W
ENCODING 87
SWIDTH 1167 0
DWIDTH 14 0
BBX 13 9 0 0
VVECTOR 7 9
SWIDTH1 0 -1000
DWIDTH1 0 -12
BITMAP 
F7B8
6310
6310
6310
35A0
35A0
35A0
18C0
18C0
ENDCHAR
STARTCHAR X
ENCODING 88
SWIDTH 917 0
DWIDTH 11 0
BBX 10 9 0 0
VVECTOR 5 9
SWIDTH1 0 -1000
DWIDTH1 0 -12
BITMAP 
F1C0
6080
3100
1A00
0C00
1600
2300
4180
E1C0
ENDCHAR
STARTCHAR Y
ENCODING 89
SWIDTH 917 0
DWIDTH 11 0
BBX 10 9 0 0
VVECTOR 5 9
SWIDTH1 0 -1000
DWIDTH1 0 -12
BITMAP 
F1C0
6080
3100
1A00
0C00
0C00
0C00
0C00
1E00
ENDCHAR
STARTCHAR Z
ENCODING 90
SWIDTH 833 0
DWIDTH 10 0
BBX 9 9 0 0
VVECTOR 5 9
SWIDTH1 0 -1000
DWIDTH1 0 -12
BITMAP 
FF80
C180
8300
0600
0C00
1800
3080
6180
FF80
ENDCHAR
STARTCHAR bracketleft
ENCODING 91
SWIDTH 500 0
DWIDTH 6 0
BBX 5 12 0 -3
VVECTOR 3 9
SWIDTH1 0 -1000
DWIDTH1 0 -12
BITMAP 
F8
C0
C0
C0
C0
C0
C0
C0
C0
C0
C0
F8
ENDCHAR
STARTCHAR backslash
ENCODING 92
SWIDTH 1083 0
DWIDTH 13 0
BBX 10 11 1 -2
VVECTOR 6 9
SWIDTH1 0 -1000
DWIDTH1 0 -12
BITMAP 
8000
C000
6000
3000
1800
0C00
0600
0300
0180
00C0
0040
ENDCHAR
STARTCHAR bracketright
ENCODING 93
SWIDTH 500 0
DWIDTH 6 0
BBX 5 12 0 -3
VVECTOR 3 9
SWIDTH1 0 -1000
DWIDTH1 0 -12
BITMAP 
F8
18
18
18
18
18
18
18
18
18
18
F8
ENDCHAR
STARTCHAR asciicircum
ENCODING 94
SWIDTH 750 0
DWIDTH 9 0
BBX 6 3 2 6
VVECTOR 5 9
SWIDTH1 0 -1000
DWIDTH1 0 -12
BITMAP 
30
78
CC
ENDCHAR
STARTCHAR underscore
ENCODING 95
SWIDTH 1167 0
DWIDTH 14 0
BBX 14 1 0 -2
VVECTOR 7 9
SWIDTH1 0 -1000
DWIDTH1 0 -12
BITMAP 
FFFC
ENDCHAR
STARTCHAR grave
ENCODING 96
SWIDTH 500 0
DWIDTH 6 0
BBX 5 3 0 6
VVECTOR 3 9
SWIDTH1 0 -1000
DWIDTH1 0 -12
BITMAP 
E0
30
18
ENDCHAR
STARTCHAR a
ENCODING 97
SWIDTH 917 0
DWIDTH 11 0
BBX 9 6 1 0
VVECTOR 6 9
SWIDTH1 0 -1000
DWIDTH1 0 -12
BITMAP 
7E00
8300
3F00
4300
C300
7D80
ENDCHAR
STARTCHAR b
ENCODING 98
SWIDTH 833 0
DWIDTH 10 0
BBX 9 9 0 0
VVECTOR 5 9
SWIDTH1 0 -1000
DWIDTH1 0 -12
BITMAP 
E000
6000
6000
6F00
7180
6180
6180
6180
3F00
ENDCHAR
STARTCHAR c
ENCODING 99
SWIDTH 833 0
DWIDTH 10 0
BBX 8 6 1 0
VVECTOR 5 9
SWIDTH1 0 -1000
DWIDTH1 0 -12
BITMAP 
7E
C3
C0
C0
C1
7E
ENDCHAR
STARTCHAR d
ENCODING 100
SWIDTH 833 0
DWIDTH 10 0
BBX 9 9 0 0
VVECTOR 5 9
SWIDTH1 0 -1000
DWIDTH1 0 -12
BITMAP 
0700
0300
0300
7B00
C700
C300
C300
C300
7D80
ENDCHAR
STARTCHAR e
ENCODING 101
SWIDTH 833 0
DWIDTH 10 0
BBX 8 6 1 0
VVECTOR 5 9
SWIDTH1 0 -1000
DWIDTH1 0 -12
BITMAP 
7E
C3
FF
C0
C1
7E
ENDCHAR
STARTCHAR f
ENCODING 102
SWIDTH 750 0
DWIDTH 9 0
BBX 8 9 0 0
VVECTOR 4 9
SWIDTH1 0 -1000
DWIDTH1 0 -12
BITMAP 
1C
33
30
FC
30
30
30
30
78
ENDCHAR
STARTCHAR g
ENCODING 103
SWIDTH 833 0
DWIDTH 10 0
BBX 9 9 0 -3
VVECTOR 5 9
SWIDTH1 0 -1000
DWIDTH1 0 -12
BITMAP 
3D80
6300
6300
3E00
4000
3F00
4380
E100
7E00
ENDCHAR
STARTCHAR h
ENCODING 104
SWIDTH 917 0
DWIDTH 11 0
BBX 10 9 0 0
VVECTOR 5 9
SWIDTH1 0 -1000
DWIDTH1 0 -12
BITMAP 
E000
6000
6000
6F00
7180
6180
6180
6180
F3C0
ENDCHAR
STARTCHAR i
ENCODING 105
SWIDTH 583 0
DWIDTH 7 0
BBX 4 9 1 0
VVECTOR 3 9
SWIDTH1 0 -1000
DWIDTH1 0 -12
BITMAP 
60
60
00
E0
60
60
60
60
F0
ENDCHAR
STARTCHAR j
ENCODING 106
SWIDTH 583 0
DWIDTH 7 0
BBX 6 12 0 -3
VVECTOR 3 9
SWIDTH1 0 -1000
DWIDTH1 0 -12
BITMAP 
0C
0C
00
1C
0C
0C
0C
0C
0C
0C
D8
70
ENDCHAR
STARTCHAR k
ENCODING 107
SWIDTH 833 0
DWIDTH 10 0
BBX 9 9 0 0
VVECTOR 5 9
SWIDTH1 0 -1000
DWIDTH1 0 -12
BITMAP 
E000
6000
6380
6200
6400
7800
6C00
6600
F780
ENDCHAR
STARTCHAR l
ENCODING 108
SWIDTH 583 0
DWIDTH 7 0
BBX 4 9 1 0
VVECTOR 3 9
SWIDTH1 0 -1000
DWIDTH1 0 -12
BITMAP 
E0
60
60
60
60
60
60
60
F0
ENDCHAR
STARTCHAR m
ENCODING 109
SWIDTH 1083 0
DWIDTH 13 0
BBX 12 6 0 0
VVECTOR 6 9
SWIDTH1 0 -1000
DWIDTH1 0 -12
BITMAP 
DDC0
6660
6660
6660
6660
EF70
ENDCHAR
STARTCHAR n
ENCODING 110
SWIDTH 917 0
DWIDTH 11 0
BBX 10 6 0 0
VVECTOR 5 9
SWIDTH1 0 -1000
DWIDTH1 0 -12
BITMAP 
DF00
6180
6180
6180
6180
F3C0
ENDCHAR
STARTCHAR o
ENCODING 111
SWIDTH 833 0
DWIDTH 10 0
BBX 8 6 1 0
VVECTOR 5 9
SWIDTH1 0 -1000
DWIDTH1 0 -12
BITMAP 
7E
C3
C3
C3
C3
7E
ENDCHAR
STARTCHAR p
ENCODING 112
SWIDTH 833 0
DWIDTH 10 0
BBX 9 9 0 -3
VVECTOR 5 9
SWIDTH1 0 -1000
DWIDTH1 0 -12
BITMAP 
EF00
7180
6180
6180
6180
7F00
6000
6000
F000
ENDCHAR
STARTCHAR q
ENCODING 113
SWIDTH 1000 0
DWIDTH 12 0
BBX 10 9 1 -3
VVECTOR 6 9
SWIDTH1 0 -1000
DWIDTH1 0 -12
BITMAP 
7EC0
C300
C300
C300
C300
7F00
0300
0300
0F80
ENDCHAR
STARTCHAR r
ENCODING 114
SWIDTH 833 0
DWIDTH 10 0
BBX 9 6 0 0
VVECTOR 5 9
SWIDTH1 0 -1000
DWIDTH1 0 -12
BITMAP 
EF00
7180
6000
6000
6000
F000
ENDCHAR
STARTCHAR s
ENCODING 115
SWIDTH 667 0
DWIDTH 8 0
BBX 7 6 0 0
VVECTOR 4 9
SWIDTH1 0 -1000
DWIDTH1 0 -12
BITMAP 
7C
C2
70
1C
86
7C
ENDCHAR
STARTCHAR t
ENCODING 116
SWIDTH 917 0
DWIDTH 11 0
BBX 8 9 1 0
VVECTOR 5 9
SWIDTH1 0 -1000
DWIDTH1 0 -12
BITMAP 
10
30
30
FC
30
30
30
33
1E
ENDCHAR
STARTCHAR u
ENCODING 117
SWIDTH 917 0
DWIDTH 11 0
BBX 10 6 0 0
VVECTOR 5 9
SWIDTH1 0 -1000
DWIDTH1 0 -12
BITMAP 
E380
6180
6180
6180
6180
3EC0
ENDCHAR
STARTCHAR v
ENCODING 118
SWIDTH 833 0
DWIDTH 10 0
BBX 9 6 0 0
VVECTOR 5 9
SWIDTH1 0 -1000
DWIDTH1 0 -12
BITMAP 
F380
6100
3200
3200
1C00
0800
ENDCHAR
STARTCHAR w
ENCODING 119
SWIDTH 1167 0
DWIDTH 14 0
BBX 13 6 0 0
VVECTOR 7 9
SWIDTH1 0 -1000
DWIDTH1 0 -12
BITMAP 
E798
6310
6310
6310
3DE0
18C0
ENDCHAR
STARTCHAR x
ENCODING 120
SWIDTH 917 0
DWIDTH 11 0
BBX 10 6 0 0
VVECTOR 5 9
SWIDTH1 0 -1000
DWIDTH1 0 -12
BITMAP 
F1C0
3100
1E00
2700
4180
E3C0
ENDCHAR
STARTCHAR y
ENCODING 121
SWIDTH 917 0
DWIDTH 11 0
BBX 10 9 0 -3
VVECTOR 5 9
SWIDTH1 0 -1000
DWIDTH1 0 -12
BITMAP 
F1C0
6080
6080
3100
1A00
0C00
0800
9000
E000
ENDCHAR
STARTCHAR z
ENCODING 122
SWIDTH 667 0
DWIDTH 8 0
BBX 7 6 0 0
VVECTOR 4 9
SWIDTH1 0 -1000
DWIDTH1 0 -12
BITMAP 
FE
8C
18
30
62
FE
ENDCHAR
STARTCHAR braceleft
ENCODING 123
SWIDTH 833 0
DWIDTH 10 0
BBX 8 9 1 0
VVECTOR 5 9
SWIDTH1 0 -1000
DWIDTH1 0 -12
BITMAP 
0F
18
18
18
F8
18
18
18
0F
ENDCHAR
STARTCHAR bar
ENCODING 124
SWIDTH 417 0
DWIDTH 5 0
BBX 2 12 1 -3
VVECTOR 2 9
SWIDTH1 0 -1000
DWIDTH1 0 -12
BITMAP 
C0
C0
C0
C0
C0
C0
C0
C0
C0
C0
C0
C0
ENDCHAR
STARTCHAR braceright
ENCODING 125
SWIDTH 833 0
DWIDTH 10 0
BBX 8 9 1 0
VVECTOR 5 9
SWIDTH1 0 -1000
DWIDTH1 0 -12
BITMAP 
F0
18
18
18
0F
18
18
18
F0
ENDCHAR
STARTCHAR asciitilde
ENCODING 126
SWIDTH 833 0
DWIDTH 10 0
BBX 9 2 0 7
VVECTOR 5 9
SWIDTH1 0 -1000
DWIDTH1 0 -12
BITMAP 
7980
CF00
ENDCHAR
STARTCHAR char7F
ENCODING 127
SWIDTH 1167 0
DWIDTH 14 0
BBX 14 12 0 -3
VVECTOR 7 9
SWIDTH1 0 -1000
DWIDTH1 0 -12
BITMAP 
CCCC
3330
CCCC
3330
CCCC
3330
CCCC
3330
CCCC
3330
CCCC
3330
ENDCHAR
STARTCHAR char80
ENCODING 128
SWIDTH 833 0
DWIDTH 10 0
BBX 8 10 1 -2
VVECTOR 5 9
SWIDTH1 0 -1000
DWIDTH1 0 -12
BITMAP 
FF
C3
C3
C3
C3
C3
C3
C3
C3
FF
ENDCHAR
STARTCHAR char81
ENCODING 129
SWIDTH 833 0
DWIDTH 10 0
BBX 8 10 1 -2
VVECTOR 5 9
SWIDTH1 0 -1000
DWIDTH1 0 -12
BITMAP 
FF
C3
C3
C3
C3
C3
C3
C3
C3
FF
ENDCHAR
STARTCHAR char82
ENCODING 130
SWIDTH 833 0
DWIDTH 10 0
BBX 8 10 1 -2
VVECTOR 5 9
SWIDTH1 0 -1000
DWIDTH1 0 -12
BITMAP 
FF
C3
C3
C3
C3
C3
C3
C3
C3
FF
ENDCHAR
STARTCHAR char83
ENCODING 131
SWIDTH 833 0
DWIDTH 10 0
BBX 8 10 1 -2
VVECTOR 5 9
SWIDTH1 0 -1000
DWIDTH1 0 -12
BITMAP 
FF
C3
C3
C3
C3
C3
C3
C3
C3
FF
ENDCHAR
STARTCHAR char84
ENCODING 132
SWIDTH 833 0
DWIDTH 10 0
BBX 8 10 1 -2
VVECTOR 5 9
SWIDTH1 0 -1000
DWIDTH1 0 -12
BITMAP 
FF
C3
C3
C3
C3
C3
C3
C3
C3
FF
ENDCHAR
STARTCHAR char85
ENCODING 133
SWIDTH 833 0
DWIDTH 10 0
BBX 8 10 1 -2
VVECTOR 5 9
SWIDTH1 0 -1000
DWIDTH1 0 -12
BITMAP 
FF
C3
C3
C3
C3
C3
C3
C3
C3
FF
ENDCHAR
STARTCHAR char86
ENCODING 134
SWIDTH 833 0
DWIDTH 10 0
BBX 8 10 1 -2
VVECTOR 5 9
SWIDTH1 0 -1000
DWIDTH1 0 -12
BITMAP 
FF
C3
C3
C3
C3
C3
C3
C3
C3
FF
ENDCHAR
STARTCHAR char87
ENCODING 135
SWIDTH 833 0
DWIDTH 10 0
BBX 8 10 1 -2
VVECTOR 5 9
SWIDTH1 0 -1000
DWIDTH1 0 -12
BITMAP 
FF
C3
C3
C3
C3
C3
C3
C3
C3
FF
ENDCHAR
STARTCHAR char88
ENCODING 136
SWIDTH 833 0
DWIDTH 10 0
BBX 8 10 1 -2
VVECTOR 5 9
SWIDTH1 0 -1000
DWIDTH1 0 -12
BITMAP 
FF
C3
C3
C3
C3
C3
C3
C3
C3
FF
ENDCHAR
STARTCHAR char89
ENCODING 137
SWIDTH 833 0
DWIDTH 10 0
BBX 8 10 1 -2
VVECTOR 5 9
SWIDTH1 0 -1000
DWIDTH1 0 -12
BITMAP 
FF
C3
C3
C3
C3
C3
C3
C3
C3
FF
ENDCHAR
STARTCHAR char8A
ENCODING 138
SWIDTH 833 0
DWIDTH 10 0
BBX 8 10 1 -2
VVECTOR 5 9
SWIDTH1 0 -1000
DWIDTH1 0 -12
BITMAP 
FF
C3
C3
C3
C3
C3
C3
C3
C3
FF
ENDCHAR
STARTCHAR char8B
ENCODING 139
SWIDTH 833 0
DWIDTH 10 0
BBX 8 10 1 -2
VVECTOR 5 9
SWIDTH1 0 -1000
DWIDTH1 0 -12
BITMAP 
FF
C3
C3
C3
C3
C3
C3
C3
C3
FF
ENDCHAR
STARTCHAR char8C
ENCODING 140
SWIDTH 833 0
DWIDTH 10 0
BBX 8 10 1 -2
VVECTOR 5 9
SWIDTH1 0 -1000
DWIDTH1 0 -12
BITMAP 
FF
C3
C3
C3
C3
C3
C3
C3
C3
FF
ENDCHAR
STARTCHAR char8D
ENCODING 141
SWIDTH 833 0
DWIDTH 10 0
BBX 8 10 1 -2
VVECTOR 5 9
SWIDTH1 0 -1000
DWIDTH1 0 -12
BITMAP 
FF
C3
C3
C3
C3
C3
C3
C3
C3
FF
ENDCHAR
STARTCHAR char8E
ENCODING 142
SWIDTH 833 0
DWIDTH 10 0
BBX 8 10 1 -2
VVECTOR 5 9
SWIDTH1 0 -1000
DWIDTH1 0 -12
BITMAP 
FF
C3
C3
C3
C3
C3
C3
C3
C3
FF
ENDCHAR
STARTCHAR char8F
ENCODING 143
SWIDTH 833 0
DWIDTH 10 0
BBX 8 10 1 -2
VVECTOR 5 9
SWIDTH1 0 -1000
DWIDTH1 0 -12
BITMAP 
FF
C3
C3
C3
C3
C3
C3
C3
C3
FF
ENDCHAR
STARTCHAR char90
ENCODING 144
SWIDTH 833 0
DWIDTH 10 0
BBX 8 10 1 -2
VVECTOR 5 9
SWIDTH1 0 -1000
DWIDTH1 0 -12
BITMAP 
FF
C3
C3
C3
C3
C3
C3
C3
C3
FF
ENDCHAR
STARTCHAR char91
ENCODING 145
SWIDTH 833 0
DWIDTH 10 0
BBX 8 10 1 -2
VVECTOR 5 9
SWIDTH1 0 -1000
DWIDTH1 0 -12
BITMAP 
FF
C3
C3
C3
C3
C3
C3
C3
C3
FF
ENDCHAR
STARTCHAR char92
ENCODING 146
SWIDTH 833 0
DWIDTH 10 0
BBX 8 10 1 -2
VVECTOR 5 9
SWIDTH1 0 -1000
DWIDTH1 0 -12
BITMAP 
FF
C3
C3
C3
C3
C3
C3
C3
C3
FF
ENDCHAR
STARTCHAR char93
ENCODING 147
SWIDTH 833 0
DWIDTH 10 0
BBX 8 10 1 -2
VVECTOR 5 9
SWIDTH1 0 -1000
DWIDTH1 0 -12
BITMAP 
FF
C3
C3
C3
C3
C3
C3
C3
C3
FF
ENDCHAR
STARTCHAR char94
ENCODING 148
SWIDTH 833 0
DWIDTH 10 0
BBX 8 10 1 -2
VVECTOR 5 9
SWIDTH1 0 -1000
DWIDTH1 0 -12
BITMAP 
FF
C3
C3
C3
C3
C3
C3
C3
C3
FF
ENDCHAR
STARTCHAR char95
ENCODING 149
SWIDTH 833 0
DWIDTH 10 0
BBX 8 10 1 -2
VVECTOR 5 9
SWIDTH1 0 -1000
DWIDTH1 0 -12
BITMAP 
FF
C3
C3
C3
C3
C3
C3
C3
C3
FF
ENDCHAR
STARTCHAR char96
ENCODING 150
SWIDTH 833 0
DWIDTH 10 0
BBX 8 10 1 -2
VVECTOR 5 9
SWIDTH1 0 -1000
DWIDTH1 0 -12
BITMAP 
FF
C3
C3
C3
C3
C3
C3
C3
C3
FF
ENDCHAR
STARTCHAR char97
ENCODING 151
SWIDTH 833 0
DWIDTH 10 0
BBX 8 10 1 -2
VVECTOR 5 9
SWIDTH1 0 -1000
DWIDTH1 0 -12
BITMAP 
FF
C3
C3
C3
C3
C3
C3
C3
C3
FF
ENDCHAR
STARTCHAR char98
ENCODING 152
SWIDTH 833 0
DWIDTH 10 0
BBX 8 10 1 -2
VVECTOR 5 9
SWIDTH1 0 -1000
DWIDTH1 0 -12
BITMAP 
FF
C3
C3
C3
C3
C3
C3
C3
C3
FF
ENDCHAR
STARTCHAR char99
ENCODING 153
SWIDTH 833 0
DWIDTH 10 0
BBX 8 10 1 -2
VVECTOR 5 9
SWIDTH1 0 -1000
DWIDTH1 0 -12
BITMAP 
FF
C3
C3
C3
C3
C3
C3
C3
C3
FF
ENDCHAR
STARTCHAR char9A
ENCODING 154
SWIDTH 833 0
DWIDTH 10 0
BBX 8 10 1 -2
VVECTOR 5 9
SWIDTH1 0 -1000
DWIDTH1 0 -12
BITMAP 
FF
C3
C3
C3
C3
C3
C3
C3
C3
FF
ENDCHAR
STARTCHAR char9B
ENCODING 155
SWIDTH 833 0
DWIDTH 10 0
BBX 8 10 1 -2
VVECTOR 5 9
SWIDTH1 0 -1000
DWIDTH1 0 -12
BITMAP 
FF
C3
C3
C3
C3
C3
C3
C3
C3
FF
ENDCHAR
STARTCHAR char9C
ENCODING 156
SWIDTH 833 0
DWIDTH 10 0
BBX 8 10 1 -2
VVECTOR 5 9
SWIDTH1 0 -1000
DWIDTH1 0 -12
BITMAP 
FF
C3
C3
C3
C3
C3
C3
C3
C3
FF
ENDCHAR
STARTCHAR char9D
ENCODING 157
SWIDTH 833 0
DWIDTH 10 0
BBX 8 10 1 -2
VVECTOR 5 9
SWIDTH1 0 -1000
DWIDTH1 0 -12
BITMAP 
FF
C3
C3
C3
C3
C3
C3
C3
C3
FF
ENDCHAR
STARTCHAR char9E
ENCODING 158
SWIDTH 833 0
DWIDTH 10 0
BBX 8 10 1 -2
VVECTOR 5 9
SWIDTH1 0 -1000
DWIDTH1 0 -12
BITMAP 
FF
C3
C3
C3
C3
C3
C3
C3
C3
FF
ENDCHAR
STARTCHAR char9F
ENCODING 159
SWIDTH 833 0
DWIDTH 10 0
BBX 8 10 1 -2
VVECTOR 5 9
SWIDTH1 0 -1000
DWIDTH1 0 -12
BITMAP 
FF
C3
C3
C3
C3
C3
C3
C3
C3
FF
ENDCHAR
STARTCHAR uni00A0
ENCODING 160
SWIDTH 833 0
DWIDTH 10 0
BBX 8 10 1 -2
VVECTOR 5 9
SWIDTH1 0 -1000
DWIDTH1 0 -12
BITMAP 
FF
C3
C3
C3
C3
C3
C3
C3
C3
FF
ENDCHAR
STARTCHAR exclamdown
ENCODING 161
SWIDTH 583 0
DWIDTH 7 0
BBX 4 9 1 0
VVECTOR 3 9
SWIDTH1 0 -1000
DWIDTH1 0 -12
BITMAP 
60
60
00
60
60
60
F0
F0
60
ENDCHAR
STARTCHAR cent
ENCODING 162
SWIDTH 750 0
DWIDTH 9 0
BBX 8 9 0 0
VVECTOR 4 9
SWIDTH1 0 -1000
DWIDTH1 0 -12
BITMAP 
18
18
7E
C3
C0
C1
7E
18
18
ENDCHAR
STARTCHAR sterling
ENCODING 163
SWIDTH 833 0
DWIDTH 10 0
BBX 9 9 0 0
VVECTOR 5 9
SWIDTH1 0 -1000
DWIDTH1 0 -12
BITMAP 
3C00
6600
6000
6000
FC00
6000
6000
6080
FF80
ENDCHAR
STARTCHAR currency
ENCODING 164
SWIDTH 750 0
DWIDTH 9 0
BBX 8 9 0 0
VVECTOR 4 9
SWIDTH1 0 -1000
DWIDTH1 0 -12
BITMAP 
C3
C3
7E
C3
C3
C3
7E
C3
C3
ENDCHAR
STARTCHAR yen
ENCODING 165
SWIDTH 917 0
DWIDTH 11 0
BBX 10 9 0 0
VVECTOR 5 9
SWIDTH1 0 -1000
DWIDTH1 0 -12
BITMAP 
F1C0
6080
3100
1A00
0C00
3F00
0C00
0C00
1E00
ENDCHAR
STARTCHAR brokenbar
ENCODING 166
SWIDTH 417 0
DWIDTH 5 0
BBX 2 9 1 0
VVECTOR 2 9
SWIDTH1 0 -1000
DWIDTH1 0 -12
BITMAP 
C0
C0
C0
C0
00
C0
C0
C0
C0
ENDCHAR
STARTCHAR section
ENCODING 167
SWIDTH 750 0
DWIDTH 9 0
BBX 8 9 0 0
VVECTOR 4 9
SWIDTH1 0 -1000
DWIDTH1 0 -12
BITMAP 
7F
C0
7E
C3
C3
C3
7E
03
FE
ENDCHAR
STARTCHAR dieresis
ENCODING 168
SWIDTH 750 0
DWIDTH 9 0
BBX 8 1 0 8
VVECTOR 4 9
SWIDTH1 0 -1000
DWIDTH1 0 -12
BITMAP 
C3
ENDCHAR
STARTCHAR copyright
ENCODING 169
SWIDTH 1250 0
DWIDTH 15 0
BBX 14 11 0 -2
VVECTOR 7 9
SWIDTH1 0 -1000
DWIDTH1 0 -12
BITMAP 
1FE0
2010
4008
C78C
CCCC
CC0C
CC0C
CC4C
4788
2010
1FE0
ENDCHAR
STARTCHAR ordfeminine
ENCODING 170
SWIDTH 833 0
DWIDTH 10 0
BBX 9 7 0 2
VVECTOR 5 9
SWIDTH1 0 -1000
DWIDTH1 0 -12
BITMAP 
7E00
8300
7F00
C300
7D80
0000
FF80
ENDCHAR
STARTCHAR guillemotleft
ENCODING 171
SWIDTH 1083 0
DWIDTH 13 0
BBX 12 9 0 0
VVECTOR 6 9
SWIDTH1 0 -1000
DWIDTH1 0 -12
BITMAP 
0C30
1860
30C0
6180
C300
6180
30C0
1860
0C30
ENDCHAR
STARTCHAR logicalnot
ENCODING 172
SWIDTH 833 0
DWIDTH 10 0
BBX 9 3 0 6
VVECTOR 5 9
SWIDTH1 0 -1000
DWIDTH1 0 -12
BITMAP 
FF80
0180
0180
ENDCHAR
STARTCHAR uni00AD
ENCODING 173
SWIDTH 750 0
DWIDTH 9 0
BBX 8 1 0 3
VVECTOR 4 9
SWIDTH1 0 -1000
DWIDTH1 0 -12
BITMAP 
FF
ENDCHAR
STARTCHAR registered
ENCODING 174
SWIDTH 1250 0
DWIDTH 15 0
BBX 14 11 0 -2
VVECTOR 7 9
SWIDTH1 0 -1000
DWIDTH1 0 -12
BITMAP 
1FE0
2010
4008
9FC4
8C64
8FE4
8CC4
9E64
4008
2010
1FE0
ENDCHAR
STARTCHAR macron
ENCODING 175
SWIDTH 750 0
DWIDTH 9 0
BBX 8 1 0 8
VVECTOR 4 9
SWIDTH1 0 -1000
DWIDTH1 0 -12
BITMAP 
FF
ENDCHAR
STARTCHAR degree
ENCODING 176
SWIDTH 667 0
DWIDTH 8 0
BBX 7 4 0 5
VVECTOR 4 9
SWIDTH1 0 -1000
DWIDTH1 0 -12
BITMAP 
7C
C6
C6
7C
ENDCHAR
STARTCHAR plusminus
ENCODING 177
SWIDTH 750 0
DWIDTH 9 0
BBX 8 7 0 1
VVECTOR 4 9
SWIDTH1 0 -1000
DWIDTH1 0 -12
BITMAP 
18
18
FF
18
18
00
FF
ENDCHAR
STARTCHAR uni00B2
ENCODING 178
SWIDTH 667 0
DWIDTH 8 0
BBX 7 5 0 4
VVECTOR 4 9
SWIDTH1 0 -1000
DWIDTH1 0 -12
BITMAP 
7C
86
18
32
FE
ENDCHAR
STARTCHAR uni00B3
ENCODING 179
SWIDTH 667 0
DWIDTH 8 0
BBX 7 5 0 4
VVECTOR 4 9
SWIDTH1 0 -1000
DWIDTH1 0 -12
BITMAP 
7C
86
1C
86
7C
ENDCHAR
STARTCHAR acute
ENCODING 180
SWIDTH 500 0
DWIDTH 6 0
BBX 5 3 0 6
VVECTOR 3 9
SWIDTH1 0 -1000
DWIDTH1 0 -12
BITMAP 
38
60
C0
ENDCHAR
STARTCHAR mu
ENCODING 181
SWIDTH 917 0
DWIDTH 11 0
BBX 10 9 0 -3
VVECTOR 5 9
SWIDTH1 0 -1000
DWIDTH1 0 -12
BITMAP 
E380
6180
6180
6180
6180
7EC0
6000
6000
6000
ENDCHAR
STARTCHAR paragraph
ENCODING 182
SWIDTH 1250 0
DWIDTH 15 0
BBX 12 9 1 0
VVECTOR 7 9
SWIDTH1 0 -1000
DWIDTH1 0 -12
BITMAP 
7FF0
C660
C660
C660
7E60
0660
0660
0660
0FF0
ENDCHAR
STARTCHAR periodcentered
ENCODING 183
SWIDTH 500 0
DWIDTH 6 0
BBX 5 3 0 3
VVECTOR 3 9
SWIDTH1 0 -1000
DWIDTH1 0 -12
BITMAP 
F8
F8
F8
ENDCHAR
STARTCHAR cedilla
ENCODING 184
SWIDTH 250 0
DWIDTH 3 0
BBX 3 3 0 -3
VVECTOR 2 9
SWIDTH1 0 -1000
DWIDTH1 0 -12
BITMAP 
60
20
C0
ENDCHAR
STARTCHAR uni00B9
ENCODING 185
SWIDTH 417 0
DWIDTH 5 0
BBX 4 5 0 4
VVECTOR 2 9
SWIDTH1 0 -1000
DWIDTH1 0 -12
BITMAP 
60
E0
60
60
F0
ENDCHAR
STARTCHAR ordmasculine
ENCODING 186
SWIDTH 750 0
DWIDTH 9 0
BBX 8 7 0 2
VVECTOR 4 9
SWIDTH1 0 -1000
DWIDTH1 0 -12
BITMAP 
7E
C3
C3
C3
7E
00
FF
ENDCHAR
STARTCHAR guillemotright
ENCODING 187
SWIDTH 1083 0
DWIDTH 13 0
BBX 12 9 0 0
VVECTOR 6 9
SWIDTH1 0 -1000
DWIDTH1 0 -12
BITMAP 
C300
6180
30C0
1860
0C30
1860
30C0
6180
C300
ENDCHAR
STARTCHAR onequarter
ENCODING 188
SWIDTH 1250 0
DWIDTH 15 0
BBX 14 10 0 -1
VVECTOR 7 9
SWIDTH1 0 -1000
DWIDTH1 0 -12
BITMAP 
6020
E060
60C0
6198
F338
0658
0CFC
1818
303C
2000
ENDCHAR
STARTCHAR onehalf
ENCODING 189
SWIDTH 1250 0
DWIDTH 15 0
BBX 14 10 0 -1
VVECTOR 7 9
SWIDTH1 0 -1000
DWIDTH1 0 -12
BITMAP 
6020
E060
60C0
6180
F338
064C
0C18
1864
30FC
2000
ENDCHAR
STARTCHAR threequarters
ENCODING 190
SWIDTH 1250 0
DWIDTH 15 0
BBX 14 10 0 -1
VVECTOR 7 9
SWIDTH1 0 -1000
DWIDTH1 0 -12
BITMAP 
7010
8C30
1860
8CC0
7998
0338
0658
0CFC
1818
103C
ENDCHAR
STARTCHAR questiondown
ENCODING 191
SWIDTH 667 0
DWIDTH 8 0
BBX 7 9 0 0
VVECTOR 4 9
SWIDTH1 0 -1000
DWIDTH1 0 -12
BITMAP 
30
30
00
30
30
60
C0
C6
7C
ENDCHAR
STARTCHAR Agrave
ENCODING 192
SWIDTH 1000 0
DWIDTH 12 0
BBX 11 9 0 0
VVECTOR 6 9
SWIDTH1 0 -1000
DWIDTH1 0 -12
BITMAP 
3800
0C00
0400
0E00
1300
2180
7FC0
40C0
E1E0
ENDCHAR
STARTCHAR Aacute
ENCODING 193
SWIDTH 1000 0
DWIDTH 12 0
BBX 11 9 0 0
VVECTOR 6 9
SWIDTH1 0 -1000
DWIDTH1 0 -12
BITMAP 
0380
0600
0400
0E00
1300
2180
7FC0
40C0
E1E0
ENDCHAR
STARTCHAR Acircumflex
ENCODING 194
SWIDTH 1000 0
DWIDTH 12 0
BBX 11 9 0 0
VVECTOR 6 9
SWIDTH1 0 -1000
DWIDTH1 0 -12
BITMAP 
0400
1B00
64C0
0E00
1300
2180
7FC0
40C0
E1E0
ENDCHAR
STARTCHAR Atilde
ENCODING 195
SWIDTH 1000 0
DWIDTH 12 0
BBX 11 9 0 0
VVECTOR 6 9
SWIDTH1 0 -1000
DWIDTH1 0 -12
BITMAP 
3880
4700
0400
0E00
1300
2180
7FC0
40C0
E1E0
ENDCHAR
STARTCHAR Adieresis
ENCODING 196
SWIDTH 1000 0
DWIDTH 12 0
BBX 11 9 0 0
VVECTOR 6 9
SWIDTH1 0 -1000
DWIDTH1 0 -12
BITMAP 
C460
0E00
1300
1300
2180
3F80
40C0
40C0
E1E0
ENDCHAR
STARTCHAR Aring
ENCODING 197
SWIDTH 1000 0
DWIDTH 12 0
BBX 11 9 0 0
VVECTOR 6 9
SWIDTH1 0 -1000
DWIDTH1 0 -12
BITMAP 
1F00
3180
1F00
0E00
1300
2180
7FC0
40C0
E1E0
ENDCHAR
STARTCHAR AE
ENCODING 198
SWIDTH 1250 0
DWIDTH 15 0
BBX 14 9 0 0
VVECTOR 7 9
SWIDTH1 0 -1000
DWIDTH1 0 -12
BITMAP 
07FC
0F04
1300
1310
23F0
3F10
4300
4304
E3FC
ENDCHAR
STARTCHAR Ccedilla
ENCODING 199
SWIDTH 1000 0
DWIDTH 12 0
BBX 11 12 0 -3
VVECTOR 6 9
SWIDTH1 0 -1000
DWIDTH1 0 -12
BITMAP 
3FA0
6060
C020
C000
C000
C000
C020
6040
3F80
0600
0200
0C00
ENDCHAR
STARTCHAR Egrave
ENCODING 200
SWIDTH 833 0
DWIDTH 10 0
BBX 9 9 0 0
VVECTOR 5 9
SWIDTH1 0 -1000
DWIDTH1 0 -12
BITMAP 
1C00
0600
FF80
6080
6000
7E00
6000
6080
FF80
ENDCHAR
STARTCHAR Eacute
ENCODING 201
SWIDTH 833 0
DWIDTH 10 0
BBX 9 9 0 0
VVECTOR 5 9
SWIDTH1 0 -1000
DWIDTH1 0 -12
BITMAP 
0E00
1800
FF80
6080
6000
7E00
6000
6080
FF80
ENDCHAR
STARTCHAR Ecircumflex
ENCODING 202
SWIDTH 833 0
DWIDTH 10 0
BBX 9 9 0 0
VVECTOR 5 9
SWIDTH1 0 -1000
DWIDTH1 0 -12
BITMAP 
0C00
3300
FF80
6080
6000
7E00
6000
6080
FF80
ENDCHAR
STARTCHAR Edieresis
ENCODING 203
SWIDTH 833 0
DWIDTH 10 0
BBX 9 9 0 0
VVECTOR 5 9
SWIDTH1 0 -1000
DWIDTH1 0 -12
BITMAP 
6300
0000
FF80
6080
6000
7E00
6000
6080
FF80
ENDCHAR
STARTCHAR Igrave
ENCODING 204
SWIDTH 583 0
DWIDTH 7 0
BBX 6 9 0 0
VVECTOR 3 9
SWIDTH1 0 -1000
DWIDTH1 0 -12
BITMAP 
E0
30
FC
30
30
30
30
30
FC
ENDCHAR
STARTCHAR Iacute
ENCODING 205
SWIDTH 583 0
DWIDTH 7 0
BBX 6 9 0 0
VVECTOR 3 9
SWIDTH1 0 -1000
DWIDTH1 0 -12
BITMAP 
1C
30
FC
30
30
30
30
30
FC
ENDCHAR
STARTCHAR Icircumflex
ENCODING 206
SWIDTH 583 0
DWIDTH 7 0
BBX 6 9 0 0
VVECTOR 3 9
SWIDTH1 0 -1000
DWIDTH1 0 -12
BITMAP 
30
CC
FC
30
30
30
30
30
FC
ENDCHAR
STARTCHAR Idieresis
ENCODING 207
SWIDTH 583 0
DWIDTH 7 0
BBX 6 9 0 0
VVECTOR 3 9
SWIDTH1 0 -1000
DWIDTH1 0 -12
BITMAP 
CC
00
FC
30
30
30
30
30
FC
ENDCHAR
STARTCHAR Eth
ENCODING 208
SWIDTH 1000 0
DWIDTH 12 0
BBX 11 9 0 0
VVECTOR 6 9
SWIDTH1 0 -1000
DWIDTH1 0 -12
BITMAP 
7F80
30C0
3060
3060
FC60
3060
3060
30C0
7F80
ENDCHAR
STARTCHAR Ntilde
ENCODING 209
SWIDTH 1000 0
DWIDTH 12 0
BBX 11 9 0 0
VVECTOR 6 9
SWIDTH1 0 -1000
DWIDTH1 0 -12
BITMAP 
3C40
4780
70E0
7840
5C40
4E40
4740
43C0
E1C0
ENDCHAR
STARTCHAR Ograve
ENCODING 210
SWIDTH 1000 0
DWIDTH 12 0
BBX 11 9 0 0
VVECTOR 6 9
SWIDTH1 0 -1000
DWIDTH1 0 -12
BITMAP 
1C00
0600
3F80
60C0
C060
C060
C060
60C0
3F80
ENDCHAR
STARTCHAR Oacute
ENCODING 211
SWIDTH 1000 0
DWIDTH 12 0
BBX 11 9 0 0
VVECTOR 6 9
SWIDTH1 0 -1000
DWIDTH1 0 -12
BITMAP 
0700
0C00
3F80
60C0
C060
C060
C060
60C0
3F80
ENDCHAR
STARTCHAR Ocircumflex
ENCODING 212
SWIDTH 1000 0
DWIDTH 12 0
BBX 11 9 0 0
VVECTOR 6 9
SWIDTH1 0 -1000
DWIDTH1 0 -12
BITMAP 
0E00
1100
3F80
60C0
C060
C060
C060
60C0
3F80
ENDCHAR
STARTCHAR Otilde
ENCODING 213
SWIDTH 1000 0
DWIDTH 12 0
BBX 11 9 0 0
VVECTOR 6 9
SWIDTH1 0 -1000
DWIDTH1 0 -12
BITMAP 
3C80
4700
3F80
60C0
C060
C060
C060
60C0
3F80
ENDCHAR
STARTCHAR Odieresis
ENCODING 214
SWIDTH 1000 0
DWIDTH 12 0
BBX 11 9 0 0
VVECTOR 6 9
SWIDTH1 0 -1000
DWIDTH1 0 -12
BITMAP 
3180
0000
3F80
60C0
C060
C060
C060
60C0
3F80
ENDCHAR
STARTCHAR multiply
ENCODING 215
SWIDTH 917 0
DWIDTH 11 0
BBX 10 5 0 1
VVECTOR 5 9
SWIDTH1 0 -1000
DWIDTH1 0 -12
BITMAP 
C0C0
3300
0C00
3300
C0C0
ENDCHAR
STARTCHAR Oslash
ENCODING 216
SWIDTH 1000 0
DWIDTH 12 0
BBX 11 9 0 0
VVECTOR 6 9
SWIDTH1 0 -1000
DWIDTH1 0 -12
BITMAP 
3FA0
60C0
C160
C260
C460
C860
D060
60C0
BF80
ENDCHAR
STARTCHAR Ugrave
ENCODING 217
SWIDTH 1000 0
DWIDTH 12 0
BBX 11 9 0 0
VVECTOR 6 9
SWIDTH1 0 -1000
DWIDTH1 0 -12
BITMAP 
1C00
0600
F0E0
6040
6040
6040
6040
3080
1F00
ENDCHAR
STARTCHAR Uacute
ENCODING 218
SWIDTH 1000 0
DWIDTH 12 0
BBX 11 9 0 0
VVECTOR 6 9
SWIDTH1 0 -1000
DWIDTH1 0 -12
BITMAP 
0380
0600
F0E0
6040
6040
6040
6040
3080
1F00
ENDCHAR
STARTCHAR Ucircumflex
ENCODING 219
SWIDTH 1000 0
DWIDTH 12 0
BBX 11 9 0 0
VVECTOR 6 9
SWIDTH1 0 -1000
DWIDTH1 0 -12
BITMAP 
0600
1980
F0E0
6040
6040
6040
6040
3080
1F00
ENDCHAR
STARTCHAR Udieresis
ENCODING 220
SWIDTH 1000 0
DWIDTH 12 0
BBX 11 9 0 0
VVECTOR 6 9
SWIDTH1 0 -1000
DWIDTH1 0 -12
BITMAP 
3180
0000
F0E0
6040
6040
6040
6040
3080
1F00
ENDCHAR
STARTCHAR Yacute
ENCODING 221
SWIDTH 917 0
DWIDTH 11 0
BBX 10 9 0 0
VVECTOR 5 9
SWIDTH1 0 -1000
DWIDTH1 0 -12
BITMAP 
0700
0C00
F1C0
6080
3100
1A00
0C00
0C00
1E00
ENDCHAR
STARTCHAR Thorn
ENCODING 222
SWIDTH 1000 0
DWIDTH 12 0
BBX 11 12 0 -3
VVECTOR 6 9
SWIDTH1 0 -1000
DWIDTH1 0 -12
BITMAP 
FC00
3000
3F80
3060
3060
3060
3060
3F80
3000
3000
3000
FC00
ENDCHAR
STARTCHAR germandbls
ENCODING 223
SWIDTH 917 0
DWIDTH 11 0
BBX 10 12 0 -3
VVECTOR 5 9
SWIDTH1 0 -1000
DWIDTH1 0 -12
BITMAP 
7F00
C180
C0C0
C180
C700
C180
C0C0
C180
CF00
C000
C000
C000
ENDCHAR
STARTCHAR agrave
ENCODING 224
SWIDTH 917 0
DWIDTH 11 0
BBX 10 9 0 0
VVECTOR 5 9
SWIDTH1 0 -1000
DWIDTH1 0 -12
BITMAP 
3800
0C00
0000
7F00
8180
3F80
4180
C180
7EC0
ENDCHAR
STARTCHAR aacute
ENCODING 225
SWIDTH 917 0
DWIDTH 11 0
BBX 10 9 0 0
VVECTOR 5 9
SWIDTH1 0 -1000
DWIDTH1 0 -12
BITMAP 
0E00
1800
0000
7F00
8180
3F80
4180
C180
7EC0
ENDCHAR
STARTCHAR acircumflex
ENCODING 226
SWIDTH 917 0
DWIDTH 11 0
BBX 10 9 0 0
VVECTOR 5 9
SWIDTH1 0 -1000
DWIDTH1 0 -12
BITMAP 
1800
6600
0000
7F00
8180
3F80
4180
C180
7EC0
ENDCHAR
STARTCHAR atilde
ENCODING 227
SWIDTH 917 0
DWIDTH 11 0
BBX 10 9 0 0
VVECTOR 5 9
SWIDTH1 0 -1000
DWIDTH1 0 -12
BITMAP 
7900
8E00
0000
7F00
8180
3F80
4180
C180
7EC0
ENDCHAR
STARTCHAR adieresis
ENCODING 228
SWIDTH 917 0
DWIDTH 11 0
BBX 10 8 0 0
VVECTOR 5 9
SWIDTH1 0 -1000
DWIDTH1 0 -12
BITMAP 
6300
0000
7F00
8180
3F80
4180
C180
7EC0
ENDCHAR
STARTCHAR aring
ENCODING 229
SWIDTH 917 0
DWIDTH 11 0
BBX 10 9 0 0
VVECTOR 5 9
SWIDTH1 0 -1000
DWIDTH1 0 -12
BITMAP 
3E00
6300
3E00
7F00
8180
3F80
4180
C180
7EC0
ENDCHAR
STARTCHAR ae
ENCODING 230
SWIDTH 1250 0
DWIDTH 15 0
BBX 14 6 0 0
VVECTOR 7 9
SWIDTH1 0 -1000
DWIDTH1 0 -12
BITMAP 
7FF8
830C
3FFC
4300
C304
7CF8
ENDCHAR
STARTCHAR ccedilla
ENCODING 231
SWIDTH 750 0
DWIDTH 9 0
BBX 8 9 0 -3
VVECTOR 4 9
SWIDTH1 0 -1000
DWIDTH1 0 -12
BITMAP 
7E
C3
C0
C0
C1
7E
18
10
60
ENDCHAR
STARTCHAR egrave
ENCODING 232
SWIDTH 750 0
DWIDTH 9 0
BBX 8 9 0 0
VVECTOR 4 9
SWIDTH1 0 -1000
DWIDTH1 0 -12
BITMAP 
70
18
00
7E
C3
FF
C0
C1
7E
ENDCHAR
STARTCHAR eacute
ENCODING 233
SWIDTH 750 0
DWIDTH 9 0
BBX 8 9 0 0
VVECTOR 4 9
SWIDTH1 0 -1000
DWIDTH1 0 -12
BITMAP 
0E
18
00
7E
C3
FF
C0
C1
7E
ENDCHAR
STARTCHAR ecircumflex
ENCODING 234
SWIDTH 750 0
DWIDTH 9 0
BBX 8 9 0 0
VVECTOR 4 9
SWIDTH1 0 -1000
DWIDTH1 0 -12
BITMAP 
18
66
00
7E
C3
FF
C0
C1
7E
ENDCHAR
STARTCHAR edieresis
ENCODING 235
SWIDTH 750 0
DWIDTH 9 0
BBX 8 8 0 0
VVECTOR 4 9
SWIDTH1 0 -1000
DWIDTH1 0 -12
BITMAP 
63
00
7E
C3
FF
C0
C1
7E
ENDCHAR
STARTCHAR igrave
ENCODING 236
SWIDTH 583 0
DWIDTH 7 0
BBX 4 9 1 0
VVECTOR 3 9
SWIDTH1 0 -1000
DWIDTH1 0 -12
BITMAP 
E0
30
00
E0
60
60
60
60
F0
ENDCHAR
STARTCHAR iacute
ENCODING 237
SWIDTH 583 0
DWIDTH 7 0
BBX 4 9 1 0
VVECTOR 3 9
SWIDTH1 0 -1000
DWIDTH1 0 -12
BITMAP 
70
C0
00
E0
60
60
60
60
F0
ENDCHAR
STARTCHAR icircumflex
ENCODING 238
SWIDTH 583 0
DWIDTH 7 0
BBX 6 9 0 0
VVECTOR 3 9
SWIDTH1 0 -1000
DWIDTH1 0 -12
BITMAP 
30
48
84
70
30
30
30
30
78
ENDCHAR
STARTCHAR idieresis
ENCODING 239
SWIDTH 583 0
DWIDTH 7 0
BBX 7 8 0 0
VVECTOR 4 9
SWIDTH1 0 -1000
DWIDTH1 0 -12
BITMAP 
C6
00
38
18
18
18
18
3C
ENDCHAR
STARTCHAR eth
ENCODING 240
SWIDTH 917 0
DWIDTH 11 0
BBX 10 9 0 0
VVECTOR 5 9
SWIDTH1 0 -1000
DWIDTH1 0 -12
BITMAP 
0300
0FC0
0300
7B00
C700
C300
C300
C300
7D80
ENDCHAR
STARTCHAR ntilde
ENCODING 241
SWIDTH 917 0
DWIDTH 11 0
BBX 10 9 0 0
VVECTOR 5 9
SWIDTH1 0 -1000
DWIDTH1 0 -12
BITMAP 
7880
8F00
0000
DF00
6180
6180
6180
6180
F3C0
ENDCHAR
STARTCHAR ograve
ENCODING 242
SWIDTH 750 0
DWIDTH 9 0
BBX 8 9 0 0
VVECTOR 4 9
SWIDTH1 0 -1000
DWIDTH1 0 -12
BITMAP 
70
18
00
7E
C3
C3
C3
C3
7E
ENDCHAR
STARTCHAR oacute
ENCODING 243
SWIDTH 750 0
DWIDTH 9 0
BBX 8 9 0 0
VVECTOR 4 9
SWIDTH1 0 -1000
DWIDTH1 0 -12
BITMAP 
0E
18
00
7E
C3
C3
C3
C3
7E
ENDCHAR
STARTCHAR ocircumflex
ENCODING 244
SWIDTH 750 0
DWIDTH 9 0
BBX 8 9 0 0
VVECTOR 4 9
SWIDTH1 0 -1000
DWIDTH1 0 -12
BITMAP 
18
66
00
7E
C3
C3
C3
C3
7E
ENDCHAR
STARTCHAR otilde
ENCODING 245
SWIDTH 750 0
DWIDTH 9 0
BBX 8 9 0 0
VVECTOR 4 9
SWIDTH1 0 -1000
DWIDTH1 0 -12
BITMAP 
79
8E
00
7E
C3
C3
C3
C3
7E
ENDCHAR
STARTCHAR odieresis
ENCODING 246
SWIDTH 750 0
DWIDTH 9 0
BBX 8 8 0 0
VVECTOR 4 9
SWIDTH1 0 -1000
DWIDTH1 0 -12
BITMAP 
C3
00
7E
C3
C3
C3
C3
7E
ENDCHAR
STARTCHAR divide
ENCODING 247
SWIDTH 917 0
DWIDTH 11 0
BBX 10 5 0 2
VVECTOR 5 9
SWIDTH1 0 -1000
DWIDTH1 0 -12
BITMAP 
0C00
0000
FFC0
0000
0C00
ENDCHAR
STARTCHAR oslash
ENCODING 248
SWIDTH 750 0
DWIDTH 9 0
BBX 8 8 0 -1
VVECTOR 4 9
SWIDTH1 0 -1000
DWIDTH1 0 -12
BITMAP 
01
7E
C7
CB
D3
E3
7E
80
ENDCHAR
STARTCHAR ugrave
ENCODING 249
SWIDTH 833 0
DWIDTH 10 0
BBX 10 9 0 0
VVECTOR 5 9
SWIDTH1 0 -1000
DWIDTH1 0 -12
BITMAP 
3800
0C00
0000
E380
6180
6180
6180
6180
3EC0
ENDCHAR
STARTCHAR uacute
ENCODING 250
SWIDTH 833 0
DWIDTH 10 0
BBX 10 9 0 0
VVECTOR 5 9
SWIDTH1 0 -1000
DWIDTH1 0 -12
BITMAP 
0700
0C00
0000
E380
6180
6180
6180
6180
3EC0
ENDCHAR
STARTCHAR ucircumflex
ENCODING 251
SWIDTH 833 0
DWIDTH 10 0
BBX 10 9 0 0
VVECTOR 5 9
SWIDTH1 0 -1000
DWIDTH1 0 -12
BITMAP 
0C00
3300
0000
E380
6180
6180
6180
6180
3EC0
ENDCHAR
STARTCHAR udieresis
ENCODING 252
SWIDTH 833 0
DWIDTH 10 0
BBX 10 8 0 0
VVECTOR 5 9
SWIDTH1 0 -1000
DWIDTH1 0 -12
BITMAP 
6180
0000
E380
6180
6180
6180
6180
3EC0
ENDCHAR
STARTCHAR yacute
ENCODING 253
SWIDTH 917 0
DWIDTH 11 0
BBX 10 12 0 -3
VVECTOR 5 9
SWIDTH1 0 -1000
DWIDTH1 0 -12
BITMAP 
0700
0C00
0000
F1C0
6080
6080
3100
1A00
0C00
0800
9000
E000
ENDCHAR
STARTCHAR thorn
ENCODING 254
SWIDTH 833 0
DWIDTH 10 0
BBX 9 12 0 -3
VVECTOR 5 9
SWIDTH1 0 -1000
DWIDTH1 0 -12
BITMAP 
F000
6000
6000
6F00
7180
6180
6180
6180
7F00
6000
6000
F000
ENDCHAR
STARTCHAR ydieresis
ENCODING 255
SWIDTH 917 0
DWIDTH 11 0
BBX 10 11 0 -3
VVECTOR 5 9
SWIDTH1 0 -1000
DWIDTH1 0 -12
BITMAP 
6180
0000
F1C0
6080
6080
3100
1A00
0C00
0800
9000
E000
ENDCHAR
STARTCHAR default
ENCODING -1
SWIDTH 833 0
DWIDTH 10 0
BBX 8 10 1 -2
VVECTOR 5 9
SWIDTH1 0 -1000
DWIDTH1 0 -12
BITMAP 
FF
C3
C3
C3
C3
C3
C3
C3
C3
FF
ENDCHAR
ENDFONT
